<svg xmlns="http://www.w3.org/2000/svg" xmlns:xlink="http://www.w3.org/1999/xlink" width="500" zoomAndPan="magnify" viewBox="0 0 375 149.999998" height="200" preserveAspectRatio="xMidYMid meet" version="1.0"><defs><g/><clipPath id="de3aa05cfd"><path d="M 15 27.835938 L 109.328125 27.835938 L 109.328125 122.164062 L 15 122.164062 Z M 15 27.835938 " clip-rule="nonzero"/></clipPath><clipPath id="548e149e0e"><path d="M 62.164062 27.835938 C 36.117188 27.835938 15 48.953125 15 75 C 15 101.046875 36.117188 122.164062 62.164062 122.164062 C 88.210938 122.164062 109.328125 101.046875 109.328125 75 C 109.328125 48.953125 88.210938 27.835938 62.164062 27.835938 " clip-rule="nonzero"/></clipPath><clipPath id="d6e05510c6"><path d="M 32.46875 43.101562 L 91.71875 43.101562 L 91.71875 106.851562 L 32.46875 106.851562 Z M 32.46875 43.101562 " clip-rule="nonzero"/></clipPath><clipPath id="5a451a6859"><path d="M 54 43.101562 L 71 43.101562 L 71 52 L 54 52 Z M 54 43.101562 " clip-rule="nonzero"/></clipPath></defs><g clip-path="url(#de3aa05cfd)"><g clip-path="url(#548e149e0e)"><path fill="#f6f2ec" d="M 15 27.835938 L 109.328125 27.835938 L 109.328125 122.164062 L 15 122.164062 Z M 15 27.835938 " fill-opacity="1" fill-rule="nonzero"/></g></g><g clip-path="url(#d6e05510c6)"><path fill="#a284ad" d="M 67.898438 43.828125 C 69.382812 43.828125 71.609375 44.496094 72.847656 45.316406 L 90.078125 56.699219 C 91.316406 57.519531 91.71875 59.238281 90.972656 60.523438 L 85.996094 69.0625 C 85.25 70.34375 83.628906 70.71875 82.394531 69.894531 L 80.652344 68.734375 C 79.417969 67.910156 78.410156 68.453125 78.410156 69.9375 L 78.410156 92.90625 C 78.410156 94.390625 77.207031 95.753906 75.734375 95.9375 L 67.707031 105.066406 C 66.597656 106.050781 64.472656 106.855469 62.988281 106.855469 L 61.230469 106.855469 C 59.746094 106.855469 57.621094 106.050781 56.507812 105.066406 L 48.484375 95.9375 C 47.011719 95.753906 45.808594 94.390625 45.808594 92.90625 L 45.808594 69.9375 C 45.808594 68.453125 44.796875 67.910156 43.5625 68.734375 L 41.824219 69.894531 C 40.589844 70.71875 38.96875 70.34375 38.222656 69.0625 L 33.246094 60.523438 C 32.5 59.238281 32.902344 57.519531 34.140625 56.699219 L 51.371094 45.316406 C 52.609375 44.496094 54.835938 43.828125 56.320312 43.828125 Z M 67.898438 43.828125 " fill-opacity="1" fill-rule="nonzero"/></g><g clip-path="url(#5a451a6859)"><path fill="#ffffff" d="M 70.085938 43.097656 C 70.085938 47.507812 66.511719 51.085938 62.109375 51.085938 C 57.703125 51.085938 54.136719 47.507812 54.136719 43.097656 " fill-opacity="1" fill-rule="nonzero"/></g><path fill="#ffffff" d="M 64.085938 74.730469 C 75.53125 66.164062 68.671875 61.859375 68.671875 61.859375 C 64.15625 59.125 62.625 65.023438 62.625 65.023438 C 62.625 65.023438 61.09375 59.125 56.582031 61.859375 C 56.582031 61.859375 49.71875 66.164062 61.164062 74.730469 C 61.164062 74.730469 62.625 76.167969 64.085938 74.730469 Z M 64.085938 74.730469 " fill-opacity="1" fill-rule="nonzero"/><path fill="#ffffff" d="M 86.675781 64.066406 C 86.675781 64.453125 86.601562 64.828125 86.453125 65.1875 C 86.300781 65.546875 86.089844 65.863281 85.816406 66.136719 C 85.542969 66.410156 85.226562 66.625 84.867188 66.773438 C 84.507812 66.921875 84.136719 66.996094 83.746094 66.996094 C 83.359375 66.996094 82.988281 66.921875 82.628906 66.773438 C 82.269531 66.625 81.953125 66.410156 81.679688 66.136719 C 81.40625 65.863281 81.191406 65.546875 81.042969 65.1875 C 80.894531 64.828125 80.820312 64.453125 80.820312 64.066406 C 80.820312 63.675781 80.894531 63.300781 81.042969 62.945312 C 81.191406 62.585938 81.40625 62.269531 81.679688 61.992188 C 81.953125 61.71875 82.269531 61.507812 82.628906 61.359375 C 82.988281 61.210938 83.359375 61.136719 83.746094 61.136719 C 84.136719 61.136719 84.507812 61.210938 84.867188 61.359375 C 85.226562 61.507812 85.542969 61.71875 85.816406 61.992188 C 86.089844 62.269531 86.300781 62.585938 86.453125 62.945312 C 86.601562 63.300781 86.675781 63.675781 86.675781 64.066406 Z M 86.675781 64.066406 " fill-opacity="1" fill-rule="nonzero"/><g fill="#a284ad" fill-opacity="1"><g transform="translate(119.158854, 89.86615)"><g><path d="M 35.328125 -5.390625 C 35.222656 -4.535156 35.078125 -3.691406 34.890625 -2.859375 C 34.710938 -2.035156 34.492188 -1.300781 34.234375 -0.65625 C 33.972656 -0.0195312 33.632812 0.484375 33.21875 0.859375 C 32.800781 1.242188 32.332031 1.4375 31.8125 1.4375 C 31.28125 1.4375 30.800781 1.03125 30.375 0.21875 C 29.945312 -0.582031 29.539062 -1.648438 29.15625 -2.984375 C 28.78125 -4.328125 28.4375 -5.835938 28.125 -7.515625 C 27.8125 -9.203125 27.53125 -10.910156 27.28125 -12.640625 C 27.03125 -14.367188 26.820312 -16.054688 26.65625 -17.703125 C 26.5 -19.359375 26.367188 -20.796875 26.265625 -22.015625 C 26.066406 -20.765625 25.835938 -19.363281 25.578125 -17.8125 C 25.316406 -16.257812 25.003906 -14.679688 24.640625 -13.078125 C 24.273438 -11.484375 23.878906 -9.914062 23.453125 -8.375 C 23.023438 -6.84375 22.5625 -5.472656 22.0625 -4.265625 C 21.570312 -3.066406 21.046875 -2.101562 20.484375 -1.375 C 19.921875 -0.65625 19.328125 -0.296875 18.703125 -0.296875 C 18.140625 -0.296875 17.578125 -0.675781 17.015625 -1.4375 C 16.453125 -2.195312 15.90625 -3.191406 15.375 -4.421875 C 14.851562 -5.660156 14.359375 -7.035156 13.890625 -8.546875 C 13.429688 -10.066406 13.003906 -11.59375 12.609375 -13.125 C 12.210938 -14.664062 11.863281 -16.117188 11.5625 -17.484375 C 11.269531 -18.859375 11.046875 -20.003906 10.890625 -20.921875 C 10.890625 -20.234375 10.878906 -19.46875 10.859375 -18.625 C 10.835938 -17.78125 10.828125 -17.175781 10.828125 -16.8125 C 10.828125 -16.65625 10.816406 -16.113281 10.796875 -15.1875 C 10.785156 -14.257812 10.726562 -13.148438 10.625 -11.859375 C 10.53125 -10.578125 10.382812 -9.203125 10.1875 -7.734375 C 9.988281 -6.273438 9.695312 -4.914062 9.3125 -3.65625 C 8.9375 -2.40625 8.46875 -1.347656 7.90625 -0.484375 C 7.351562 0.367188 6.664062 0.828125 5.84375 0.890625 C 5.175781 0.585938 4.617188 0.0820312 4.171875 -0.625 C 3.734375 -1.332031 3.363281 -2.160156 3.0625 -3.109375 C 2.769531 -4.066406 2.539062 -5.085938 2.375 -6.171875 C 2.207031 -7.265625 2.070312 -8.332031 1.96875 -9.375 C 1.875 -10.414062 1.816406 -11.378906 1.796875 -12.265625 C 1.785156 -13.160156 1.78125 -13.882812 1.78125 -14.4375 C 1.78125 -15.425781 1.835938 -16.671875 1.953125 -18.171875 C 2.066406 -19.679688 2.253906 -21.257812 2.515625 -22.90625 C 2.785156 -24.550781 3.132812 -26.195312 3.5625 -27.84375 C 3.988281 -29.5 4.503906 -30.976562 5.109375 -32.28125 C 5.722656 -33.582031 6.429688 -34.644531 7.234375 -35.46875 C 8.046875 -36.289062 8.984375 -36.703125 10.046875 -36.703125 C 10.535156 -36.703125 11.0625 -36.421875 11.625 -35.859375 C 12.1875 -35.304688 12.742188 -34.570312 13.296875 -33.65625 C 13.859375 -32.75 14.40625 -31.734375 14.9375 -30.609375 C 15.46875 -29.492188 15.972656 -28.367188 16.453125 -27.234375 C 16.929688 -26.097656 17.347656 -25.007812 17.703125 -23.96875 C 18.066406 -22.925781 18.363281 -22.046875 18.59375 -21.328125 C 18.863281 -22.117188 19.195312 -23.039062 19.59375 -24.09375 C 19.988281 -25.144531 20.425781 -26.238281 20.90625 -27.375 C 21.382812 -28.519531 21.910156 -29.644531 22.484375 -30.75 C 23.054688 -31.851562 23.65625 -32.84375 24.28125 -33.71875 C 24.914062 -34.59375 25.550781 -35.300781 26.1875 -35.84375 C 26.832031 -36.382812 27.484375 -36.65625 28.140625 -36.65625 C 29.296875 -36.65625 30.285156 -36.222656 31.109375 -35.359375 C 31.941406 -34.503906 32.632812 -33.394531 33.1875 -32.03125 C 33.75 -30.664062 34.195312 -29.132812 34.53125 -27.4375 C 34.863281 -25.738281 35.117188 -24.054688 35.296875 -22.390625 C 35.472656 -20.722656 35.585938 -19.160156 35.640625 -17.703125 C 35.691406 -16.253906 35.71875 -15.085938 35.71875 -14.203125 C 35.71875 -13.835938 35.71875 -13.34375 35.71875 -12.71875 C 35.71875 -12.09375 35.707031 -11.382812 35.6875 -10.59375 C 35.675781 -9.800781 35.632812 -8.957031 35.5625 -8.0625 C 35.5 -7.175781 35.421875 -6.285156 35.328125 -5.390625 Z M 35.328125 -5.390625 "/></g></g></g><g fill="#a284ad" fill-opacity="1"><g transform="translate(156.901106, 89.86615)"><g><path d="M 23.15625 -14.140625 C 23.15625 -12.328125 22.972656 -10.53125 22.609375 -8.75 C 22.242188 -6.96875 21.628906 -5.375 20.765625 -3.96875 C 19.910156 -2.570312 18.765625 -1.445312 17.328125 -0.59375 C 15.898438 0.257812 14.113281 0.6875 11.96875 0.6875 C 9.863281 0.6875 8.097656 0.269531 6.671875 -0.5625 C 5.253906 -1.40625 4.125 -2.519531 3.28125 -3.90625 C 2.445312 -5.289062 1.851562 -6.859375 1.5 -8.609375 C 1.15625 -10.359375 0.984375 -12.140625 0.984375 -13.953125 C 0.984375 -15.929688 1.21875 -17.894531 1.6875 -19.84375 C 1.78125 -20.363281 1.96875 -21.09375 2.25 -22.03125 C 2.53125 -22.976562 2.890625 -23.90625 3.328125 -24.8125 C 3.773438 -25.71875 4.285156 -26.5 4.859375 -27.15625 C 5.441406 -27.8125 6.082031 -28.140625 6.78125 -28.140625 C 7.4375 -28.140625 7.960938 -27.957031 8.359375 -27.59375 C 8.753906 -27.238281 9.066406 -26.785156 9.296875 -26.234375 C 9.523438 -25.691406 9.671875 -25.113281 9.734375 -24.5 C 9.804688 -23.894531 9.84375 -23.347656 9.84375 -22.859375 C 9.84375 -22.097656 9.785156 -21.351562 9.671875 -20.625 C 9.554688 -19.90625 9.429688 -19.179688 9.296875 -18.453125 C 9.171875 -17.460938 9.046875 -16.472656 8.921875 -15.484375 C 8.804688 -14.492188 8.75 -13.503906 8.75 -12.515625 C 8.75 -12.023438 8.773438 -11.472656 8.828125 -10.859375 C 8.878906 -10.242188 9.003906 -9.65625 9.203125 -9.09375 C 9.398438 -8.539062 9.679688 -8.070312 10.046875 -7.6875 C 10.410156 -7.3125 10.921875 -7.125 11.578125 -7.125 C 12.429688 -7.125 13.113281 -7.351562 13.625 -7.8125 C 14.132812 -8.28125 14.515625 -8.859375 14.765625 -9.546875 C 15.015625 -10.242188 15.171875 -10.984375 15.234375 -11.765625 C 15.296875 -12.554688 15.328125 -13.285156 15.328125 -13.953125 C 15.328125 -15.398438 15.226562 -16.820312 15.03125 -18.21875 C 14.832031 -19.625 14.65625 -21.054688 14.5 -22.515625 C 14.457031 -22.671875 14.4375 -22.898438 14.4375 -23.203125 C 14.4375 -23.691406 14.519531 -24.179688 14.6875 -24.671875 C 14.851562 -25.171875 15.082031 -25.617188 15.375 -26.015625 C 15.675781 -26.410156 16.039062 -26.734375 16.46875 -26.984375 C 16.894531 -27.234375 17.375 -27.359375 17.90625 -27.359375 C 18.632812 -27.359375 19.273438 -27.101562 19.828125 -26.59375 C 20.390625 -26.082031 20.859375 -25.421875 21.234375 -24.609375 C 21.617188 -23.804688 21.9375 -22.898438 22.1875 -21.890625 C 22.4375 -20.878906 22.632812 -19.890625 22.78125 -18.921875 C 22.925781 -17.953125 23.023438 -17.035156 23.078125 -16.171875 C 23.128906 -15.316406 23.15625 -14.640625 23.15625 -14.140625 Z M 23.15625 -14.140625 "/></g></g></g><g fill="#a284ad" fill-opacity="1"><g transform="translate(181.584439, 89.86615)"><g><path d="M 31.515625 -16.328125 C 31.515625 -15.703125 31.515625 -14.851562 31.515625 -13.78125 C 31.515625 -12.707031 31.488281 -11.539062 31.4375 -10.28125 C 31.382812 -9.03125 31.273438 -7.769531 31.109375 -6.5 C 30.953125 -5.226562 30.695312 -4.082031 30.34375 -3.0625 C 30 -2.039062 29.5625 -1.203125 29.03125 -0.546875 C 28.507812 0.109375 27.835938 0.4375 27.015625 0.4375 C 26.285156 0.4375 25.726562 0.132812 25.34375 -0.46875 C 24.96875 -1.082031 24.695312 -1.800781 24.53125 -2.625 C 24.375 -3.445312 24.285156 -4.285156 24.265625 -5.140625 C 24.242188 -6.003906 24.234375 -6.679688 24.234375 -7.171875 C 24.234375 -8.660156 24.28125 -10.113281 24.375 -11.53125 C 24.476562 -12.945312 24.53125 -14.394531 24.53125 -15.875 C 24.53125 -16.039062 24.53125 -16.335938 24.53125 -16.765625 C 24.53125 -17.191406 24.5 -17.617188 24.4375 -18.046875 C 24.375 -18.484375 24.265625 -18.863281 24.109375 -19.1875 C 23.960938 -19.519531 23.742188 -19.6875 23.453125 -19.6875 C 22.859375 -19.6875 22.378906 -19.378906 22.015625 -18.765625 C 21.648438 -18.160156 21.351562 -17.445312 21.125 -16.625 C 20.894531 -15.800781 20.726562 -14.984375 20.625 -14.171875 C 20.53125 -13.359375 20.46875 -12.757812 20.4375 -12.375 C 20.363281 -11.9375 20.300781 -11.289062 20.25 -10.4375 C 20.207031 -9.582031 20.144531 -8.640625 20.0625 -7.609375 C 19.976562 -6.585938 19.84375 -5.539062 19.65625 -4.46875 C 19.476562 -3.40625 19.25 -2.4375 18.96875 -1.5625 C 18.6875 -0.6875 18.332031 0.03125 17.90625 0.59375 C 17.476562 1.15625 16.953125 1.4375 16.328125 1.4375 C 15.535156 1.4375 14.921875 1.085938 14.484375 0.390625 C 14.054688 -0.296875 13.742188 -1.097656 13.546875 -2.015625 C 13.347656 -2.941406 13.222656 -3.882812 13.171875 -4.84375 C 13.128906 -5.800781 13.109375 -6.546875 13.109375 -7.078125 C 13.109375 -7.640625 13.113281 -8.179688 13.125 -8.703125 C 13.144531 -9.234375 13.15625 -9.78125 13.15625 -10.34375 C 13.15625 -10.570312 13.15625 -10.945312 13.15625 -11.46875 C 13.15625 -12 13.144531 -12.585938 13.125 -13.234375 C 13.113281 -13.878906 13.082031 -14.546875 13.03125 -15.234375 C 12.976562 -15.929688 12.90625 -16.566406 12.8125 -17.140625 C 12.71875 -17.710938 12.570312 -18.179688 12.375 -18.546875 C 12.175781 -18.910156 11.941406 -19.09375 11.671875 -19.09375 C 11.242188 -19.09375 10.847656 -18.820312 10.484375 -18.28125 C 10.117188 -17.738281 9.804688 -17.09375 9.546875 -16.34375 C 9.285156 -15.601562 9.078125 -14.867188 8.921875 -14.140625 C 8.773438 -13.421875 8.703125 -12.894531 8.703125 -12.5625 L 8.703125 -12.265625 C 8.703125 -10.679688 8.800781 -9.128906 9 -7.609375 C 9.195312 -6.097656 9.296875 -4.550781 9.296875 -2.96875 C 9.296875 -2.039062 9 -1.191406 8.40625 -0.421875 C 7.8125 0.347656 6.988281 0.734375 5.9375 0.734375 C 5.175781 0.734375 4.546875 0.445312 4.046875 -0.125 C 3.554688 -0.695312 3.144531 -1.445312 2.8125 -2.375 C 2.488281 -3.300781 2.234375 -4.316406 2.046875 -5.421875 C 1.867188 -6.523438 1.742188 -7.613281 1.671875 -8.6875 C 1.609375 -9.757812 1.566406 -10.726562 1.546875 -11.59375 C 1.535156 -12.46875 1.53125 -13.117188 1.53125 -13.546875 C 1.53125 -14.046875 1.519531 -14.773438 1.5 -15.734375 C 1.488281 -16.691406 1.503906 -17.726562 1.546875 -18.84375 C 1.597656 -19.96875 1.691406 -21.113281 1.828125 -22.28125 C 1.960938 -23.457031 2.175781 -24.519531 2.46875 -25.46875 C 2.769531 -26.425781 3.160156 -27.207031 3.640625 -27.8125 C 4.117188 -28.425781 4.734375 -28.734375 5.484375 -28.734375 C 6.347656 -28.734375 7.050781 -28.503906 7.59375 -28.046875 C 8.132812 -27.585938 8.40625 -26.894531 8.40625 -25.96875 C 8.40625 -25.769531 8.394531 -25.570312 8.375 -25.375 C 8.363281 -25.175781 8.34375 -24.992188 8.3125 -24.828125 C 8.675781 -25.359375 9.117188 -25.894531 9.640625 -26.4375 C 10.171875 -26.976562 10.738281 -27.472656 11.34375 -27.921875 C 11.957031 -28.367188 12.609375 -28.734375 13.296875 -29.015625 C 13.992188 -29.296875 14.691406 -29.4375 15.390625 -29.4375 C 16.046875 -29.4375 16.632812 -29.253906 17.15625 -28.890625 C 17.6875 -28.523438 18.148438 -28.070312 18.546875 -27.53125 C 18.941406 -26.988281 19.269531 -26.398438 19.53125 -25.765625 C 19.800781 -25.140625 19.984375 -24.550781 20.078125 -24 C 20.410156 -24.59375 20.816406 -25.191406 21.296875 -25.796875 C 21.773438 -26.410156 22.296875 -26.945312 22.859375 -27.40625 C 23.421875 -27.863281 24.035156 -28.238281 24.703125 -28.53125 C 25.378906 -28.832031 26.082031 -28.984375 26.8125 -28.984375 C 27.5 -28.984375 28.085938 -28.734375 28.578125 -28.234375 C 29.078125 -27.742188 29.507812 -27.113281 29.875 -26.34375 C 30.238281 -25.570312 30.519531 -24.695312 30.71875 -23.71875 C 30.914062 -22.75 31.078125 -21.789062 31.203125 -20.84375 C 31.335938 -19.90625 31.421875 -19.03125 31.453125 -18.21875 C 31.492188 -17.414062 31.515625 -16.785156 31.515625 -16.328125 Z M 31.515625 -16.328125 "/></g></g></g><g fill="#a284ad" fill-opacity="1"><g transform="translate(214.874787, 89.86615)"><g><path d="M 8.859375 -36.453125 C 8.859375 -36.097656 8.757812 -35.742188 8.5625 -35.390625 C 8.363281 -35.046875 8.125 -34.722656 7.84375 -34.421875 C 7.5625 -34.128906 7.253906 -33.859375 6.921875 -33.609375 C 6.597656 -33.367188 6.300781 -33.148438 6.03125 -32.953125 C 5.800781 -32.785156 5.546875 -32.59375 5.265625 -32.375 C 4.984375 -32.164062 4.6875 -31.96875 4.375 -31.78125 C 4.0625 -31.601562 3.75 -31.445312 3.4375 -31.3125 C 3.125 -31.175781 2.816406 -31.109375 2.515625 -31.109375 C 2.253906 -31.109375 2.023438 -31.179688 1.828125 -31.328125 C 1.628906 -31.484375 1.53125 -31.707031 1.53125 -32 C 1.53125 -32.5 1.71875 -33.101562 2.09375 -33.8125 C 2.476562 -34.519531 2.953125 -35.210938 3.515625 -35.890625 C 4.078125 -36.566406 4.671875 -37.144531 5.296875 -37.625 C 5.921875 -38.101562 6.5 -38.34375 7.03125 -38.34375 C 7.488281 -38.34375 7.90625 -38.148438 8.28125 -37.765625 C 8.664062 -37.390625 8.859375 -36.953125 8.859375 -36.453125 Z M 8.859375 -36.453125 "/></g></g></g><g fill="#a284ad" fill-opacity="1"><g transform="translate(225.262563, 89.86615)"><g><path d="M 15.984375 -27.203125 C 15.984375 -26.242188 15.660156 -25.535156 15.015625 -25.078125 C 14.367188 -24.617188 13.648438 -24.179688 12.859375 -23.765625 C 12.066406 -23.359375 11.347656 -22.875 10.703125 -22.3125 C 10.066406 -21.75 9.75 -20.90625 9.75 -19.78125 C 9.75 -19.1875 9.890625 -18.675781 10.171875 -18.25 C 10.453125 -17.820312 10.796875 -17.4375 11.203125 -17.09375 C 11.617188 -16.75 12.070312 -16.394531 12.5625 -16.03125 C 13.0625 -15.664062 13.515625 -15.25 13.921875 -14.78125 C 14.335938 -14.320312 14.6875 -13.765625 14.96875 -13.109375 C 15.25 -12.453125 15.390625 -11.644531 15.390625 -10.6875 C 15.390625 -9.300781 15.03125 -7.9375 14.3125 -6.59375 C 13.601562 -5.257812 12.695312 -4.070312 11.59375 -3.03125 C 10.488281 -2 9.242188 -1.171875 7.859375 -0.546875 C 6.472656 0.078125 5.109375 0.390625 3.765625 0.390625 C 3.203125 0.390625 2.640625 0.347656 2.078125 0.265625 C 1.515625 0.179688 1.007812 0.0234375 0.5625 -0.203125 C 0.125 -0.429688 -0.238281 -0.75 -0.53125 -1.15625 C -0.832031 -1.570312 -0.984375 -2.109375 -0.984375 -2.765625 C -0.984375 -3.691406 -0.800781 -4.410156 -0.4375 -4.921875 C -0.0820312 -5.429688 0.375 -5.832031 0.9375 -6.125 C 1.5 -6.425781 2.097656 -6.660156 2.734375 -6.828125 C 3.378906 -6.992188 3.984375 -7.195312 4.546875 -7.4375 C 5.109375 -7.6875 5.570312 -8.007812 5.9375 -8.40625 C 6.300781 -8.800781 6.484375 -9.363281 6.484375 -10.09375 C 6.484375 -10.78125 6.207031 -11.492188 5.65625 -12.234375 C 5.113281 -12.984375 4.515625 -13.773438 3.859375 -14.609375 C 3.203125 -15.453125 2.597656 -16.351562 2.046875 -17.3125 C 1.503906 -18.269531 1.234375 -19.328125 1.234375 -20.484375 C 1.234375 -21.898438 1.519531 -23.207031 2.09375 -24.40625 C 2.675781 -25.613281 3.453125 -26.660156 4.421875 -27.546875 C 5.398438 -28.441406 6.515625 -29.144531 7.765625 -29.65625 C 9.015625 -30.164062 10.332031 -30.421875 11.71875 -30.421875 C 12.25 -30.421875 12.769531 -30.367188 13.28125 -30.265625 C 13.789062 -30.171875 14.242188 -30 14.640625 -29.75 C 15.035156 -29.507812 15.359375 -29.179688 15.609375 -28.765625 C 15.859375 -28.347656 15.984375 -27.828125 15.984375 -27.203125 Z M 15.984375 -27.203125 "/></g></g></g><g fill="#a284ad" fill-opacity="1"><g transform="translate(241.734607, 89.86615)"><g/></g></g><g fill="#a284ad" fill-opacity="1"><g transform="translate(253.655816, 89.86615)"><g><path d="M 26.953125 -22.265625 C 26.953125 -19.359375 26.359375 -16.5625 25.171875 -13.875 C 23.992188 -11.1875 22.40625 -8.800781 20.40625 -6.71875 C 18.40625 -4.644531 16.078125 -2.988281 13.421875 -1.75 C 10.773438 -0.519531 7.984375 0.09375 5.046875 0.09375 L 4.953125 0.09375 C 4.359375 0.09375 3.867188 -0.175781 3.484375 -0.71875 C 3.109375 -1.257812 2.785156 -1.941406 2.515625 -2.765625 C 2.253906 -3.585938 2.054688 -4.507812 1.921875 -5.53125 C 1.796875 -6.5625 1.695312 -7.5625 1.625 -8.53125 C 1.5625 -9.507812 1.53125 -10.382812 1.53125 -11.15625 C 1.53125 -11.925781 1.53125 -12.507812 1.53125 -12.90625 C 1.53125 -14.03125 1.546875 -15.144531 1.578125 -16.25 C 1.609375 -17.351562 1.660156 -18.46875 1.734375 -19.59375 C 1.734375 -19.957031 1.753906 -20.492188 1.796875 -21.203125 C 1.847656 -21.910156 1.90625 -22.707031 1.96875 -23.59375 C 2.039062 -24.488281 2.125 -25.421875 2.21875 -26.390625 C 2.320312 -27.359375 2.429688 -28.265625 2.546875 -29.109375 C 2.660156 -29.953125 2.773438 -30.691406 2.890625 -31.328125 C 3.003906 -31.972656 3.144531 -32.414062 3.3125 -32.65625 C 3.738281 -33.375 4.394531 -34.015625 5.28125 -34.578125 C 6.175781 -35.140625 7.144531 -35.601562 8.1875 -35.96875 C 9.226562 -36.332031 10.28125 -36.601562 11.34375 -36.78125 C 12.414062 -36.957031 13.347656 -37.046875 14.140625 -37.046875 C 16.316406 -37.046875 18.207031 -36.640625 19.8125 -35.828125 C 21.414062 -35.023438 22.75 -33.9375 23.8125 -32.5625 C 24.882812 -31.195312 25.675781 -29.625 26.1875 -27.84375 C 26.695312 -26.070312 26.953125 -24.210938 26.953125 -22.265625 Z M 18.65625 -20.828125 C 18.65625 -21.554688 18.519531 -22.296875 18.25 -23.046875 C 17.988281 -23.804688 17.617188 -24.5 17.140625 -25.125 C 16.660156 -25.75 16.082031 -26.25 15.40625 -26.625 C 14.726562 -27.007812 13.976562 -27.203125 13.15625 -27.203125 C 12.46875 -27.203125 11.757812 -27.039062 11.03125 -26.71875 C 10.863281 -26.613281 10.710938 -26.304688 10.578125 -25.796875 C 10.453125 -25.285156 10.347656 -24.664062 10.265625 -23.9375 C 10.179688 -23.21875 10.101562 -22.425781 10.03125 -21.5625 C 9.96875 -20.707031 9.925781 -19.890625 9.90625 -19.109375 C 9.894531 -18.335938 9.878906 -17.65625 9.859375 -17.0625 C 9.847656 -16.46875 9.84375 -16.070312 9.84375 -15.875 C 9.84375 -15.550781 9.84375 -15.066406 9.84375 -14.421875 C 9.84375 -13.773438 9.867188 -13.140625 9.921875 -12.515625 C 9.972656 -11.890625 10.03125 -11.34375 10.09375 -10.875 C 10.15625 -10.414062 10.269531 -10.1875 10.4375 -10.1875 C 11.425781 -10.1875 12.40625 -10.570312 13.375 -11.34375 C 14.351562 -12.125 15.238281 -13.070312 16.03125 -14.1875 C 16.820312 -15.3125 17.457031 -16.484375 17.9375 -17.703125 C 18.414062 -18.929688 18.65625 -19.972656 18.65625 -20.828125 Z M 18.65625 -20.828125 "/></g></g></g><g fill="#a284ad" fill-opacity="1"><g transform="translate(281.356552, 89.86615)"><g><path d="M 22.21875 -8.8125 C 22.21875 -7.6875 21.859375 -6.585938 21.140625 -5.515625 C 20.429688 -4.441406 19.539062 -3.484375 18.46875 -2.640625 C 17.40625 -1.804688 16.257812 -1.132812 15.03125 -0.625 C 13.8125 -0.113281 12.691406 0.140625 11.671875 0.140625 C 9.921875 0.140625 8.363281 -0.289062 7 -1.15625 C 5.632812 -2.03125 4.488281 -3.144531 3.5625 -4.5 C 2.632812 -5.851562 1.929688 -7.34375 1.453125 -8.96875 C 0.972656 -10.601562 0.734375 -12.195312 0.734375 -13.75 C 0.734375 -15.394531 0.960938 -17.15625 1.421875 -19.03125 C 1.890625 -20.914062 2.59375 -22.648438 3.53125 -24.234375 C 4.476562 -25.816406 5.664062 -27.132812 7.09375 -28.1875 C 8.53125 -29.25 10.238281 -29.78125 12.21875 -29.78125 C 13.34375 -29.78125 14.414062 -29.585938 15.4375 -29.203125 C 16.457031 -28.828125 17.347656 -28.289062 18.109375 -27.59375 C 18.867188 -26.90625 19.476562 -26.082031 19.9375 -25.125 C 20.394531 -24.175781 20.625 -23.109375 20.625 -21.921875 C 20.625 -20.367188 20.296875 -18.914062 19.640625 -17.5625 C 18.984375 -16.207031 18.109375 -15.035156 17.015625 -14.046875 C 15.929688 -13.054688 14.675781 -12.253906 13.25 -11.640625 C 11.832031 -11.035156 10.382812 -10.703125 8.90625 -10.640625 C 9.039062 -9.679688 9.425781 -8.988281 10.0625 -8.5625 C 10.707031 -8.132812 11.476562 -7.921875 12.375 -7.921875 C 13.03125 -7.921875 13.671875 -8.082031 14.296875 -8.40625 C 14.921875 -8.738281 15.53125 -9.109375 16.125 -9.515625 C 16.71875 -9.929688 17.300781 -10.300781 17.875 -10.625 C 18.457031 -10.957031 19.046875 -11.125 19.640625 -11.125 C 20.296875 -11.125 20.890625 -10.910156 21.421875 -10.484375 C 21.953125 -10.054688 22.21875 -9.5 22.21875 -8.8125 Z M 14.203125 -20.921875 C 14.203125 -21.347656 14.082031 -21.789062 13.84375 -22.25 C 13.613281 -22.71875 13.253906 -22.953125 12.765625 -22.953125 C 12.035156 -22.953125 11.421875 -22.757812 10.921875 -22.375 C 10.429688 -22 10.019531 -21.519531 9.6875 -20.9375 C 9.363281 -20.363281 9.109375 -19.75 8.921875 -19.09375 C 8.742188 -18.4375 8.640625 -17.828125 8.609375 -17.265625 C 9.066406 -17.359375 9.617188 -17.488281 10.265625 -17.65625 C 10.910156 -17.820312 11.519531 -18.046875 12.09375 -18.328125 C 12.664062 -18.609375 13.160156 -18.960938 13.578125 -19.390625 C 13.992188 -19.816406 14.203125 -20.328125 14.203125 -20.921875 Z M 14.203125 -20.921875 "/></g></g></g><g fill="#a284ad" fill-opacity="1"><g transform="translate(304.061261, 89.86615)"><g><path d="M 22.515625 -6.96875 C 22.515625 -6.375 22.488281 -5.597656 22.4375 -4.640625 C 22.382812 -3.691406 22.242188 -2.765625 22.015625 -1.859375 C 21.785156 -0.953125 21.421875 -0.171875 20.921875 0.484375 C 20.429688 1.148438 19.738281 1.484375 18.84375 1.484375 C 17.625 1.484375 16.679688 1.085938 16.015625 0.296875 C 15.359375 -0.492188 15.050781 -1.484375 15.09375 -2.671875 C 14.03125 -1.742188 12.832031 -1.015625 11.5 -0.484375 C 10.164062 0.0351562 8.804688 0.296875 7.421875 0.296875 C 6.460938 0.296875 5.550781 0.0664062 4.6875 -0.390625 C 3.832031 -0.859375 3.078125 -1.453125 2.421875 -2.171875 C 1.765625 -2.898438 1.238281 -3.71875 0.84375 -4.625 C 0.445312 -5.53125 0.25 -6.429688 0.25 -7.328125 C 0.25 -8.910156 0.734375 -10.289062 1.703125 -11.46875 C 2.679688 -12.65625 3.878906 -13.671875 5.296875 -14.515625 C 6.710938 -15.359375 8.21875 -16.023438 9.8125 -16.515625 C 11.414062 -17.015625 12.84375 -17.347656 14.09375 -17.515625 C 14.09375 -17.679688 14.097656 -17.828125 14.109375 -17.953125 C 14.128906 -18.085938 14.140625 -18.238281 14.140625 -18.40625 C 14.140625 -19.425781 13.859375 -20.25 13.296875 -20.875 C 12.742188 -21.5 11.957031 -21.8125 10.9375 -21.8125 C 10.113281 -21.8125 9.40625 -21.671875 8.8125 -21.390625 C 8.21875 -21.109375 7.65625 -20.796875 7.125 -20.453125 C 6.59375 -20.109375 6.0625 -19.796875 5.53125 -19.515625 C 5.007812 -19.234375 4.421875 -19.09375 3.765625 -19.09375 C 3.035156 -19.09375 2.414062 -19.320312 1.90625 -19.78125 C 1.394531 -20.25 1.140625 -20.84375 1.140625 -21.5625 C 1.140625 -22.65625 1.457031 -23.644531 2.09375 -24.53125 C 2.738281 -25.425781 3.546875 -26.175781 4.515625 -26.78125 C 5.492188 -27.394531 6.550781 -27.875 7.6875 -28.21875 C 8.832031 -28.5625 9.878906 -28.734375 10.828125 -28.734375 C 11.722656 -28.734375 12.613281 -28.625 13.5 -28.40625 C 14.394531 -28.195312 15.238281 -27.867188 16.03125 -27.421875 C 16.820312 -26.984375 17.535156 -26.441406 18.171875 -25.796875 C 18.816406 -25.148438 19.335938 -24.398438 19.734375 -23.546875 C 20.328125 -22.328125 20.804688 -21.03125 21.171875 -19.65625 C 21.535156 -18.289062 21.816406 -16.890625 22.015625 -15.453125 C 22.210938 -14.023438 22.34375 -12.59375 22.40625 -11.15625 C 22.476562 -9.71875 22.515625 -8.320312 22.515625 -6.96875 Z M 14.59375 -8.5625 L 14.4375 -11.921875 C 14.375 -11.921875 14.304688 -11.925781 14.234375 -11.9375 C 14.171875 -11.957031 14.109375 -11.96875 14.046875 -11.96875 C 13.617188 -11.96875 13.082031 -11.859375 12.4375 -11.640625 C 11.800781 -11.429688 11.1875 -11.132812 10.59375 -10.75 C 10 -10.375 9.492188 -9.957031 9.078125 -9.5 C 8.660156 -9.039062 8.453125 -8.5625 8.453125 -8.0625 C 8.453125 -7.601562 8.617188 -7.289062 8.953125 -7.125 C 9.285156 -6.957031 9.664062 -6.875 10.09375 -6.875 C 10.820312 -6.875 11.597656 -7.0625 12.421875 -7.4375 C 13.242188 -7.820312 13.96875 -8.195312 14.59375 -8.5625 Z M 14.59375 -8.5625 "/></g></g></g><g fill="#a284ad" fill-opacity="1"><g transform="translate(328.052076, 89.86615)"><g><path d="M 10.734375 -29.984375 C 10.734375 -28.203125 10.660156 -26.410156 10.515625 -24.609375 C 10.367188 -22.816406 10.296875 -21.007812 10.296875 -19.1875 C 10.296875 -16.851562 10.367188 -14.515625 10.515625 -12.171875 C 10.660156 -9.828125 10.734375 -7.46875 10.734375 -5.09375 C 10.734375 -4.5 10.695312 -3.832031 10.625 -3.09375 C 10.5625 -2.351562 10.40625 -1.664062 10.15625 -1.03125 C 9.914062 -0.40625 9.546875 0.117188 9.046875 0.546875 C 8.554688 0.972656 7.898438 1.1875 7.078125 1.1875 C 6.285156 1.1875 5.597656 0.796875 5.015625 0.015625 C 4.441406 -0.753906 3.960938 -1.738281 3.578125 -2.9375 C 3.203125 -4.144531 2.890625 -5.488281 2.640625 -6.96875 C 2.398438 -8.457031 2.21875 -9.898438 2.09375 -11.296875 C 1.976562 -12.703125 1.894531 -13.988281 1.84375 -15.15625 C 1.800781 -16.332031 1.78125 -17.203125 1.78125 -17.765625 C 1.78125 -18.390625 1.800781 -19.296875 1.84375 -20.484375 C 1.894531 -21.671875 2.003906 -22.957031 2.171875 -24.34375 C 2.335938 -25.726562 2.5625 -27.132812 2.84375 -28.5625 C 3.125 -30 3.492188 -31.300781 3.953125 -32.46875 C 4.421875 -33.644531 4.972656 -34.601562 5.609375 -35.34375 C 6.253906 -36.082031 7.023438 -36.453125 7.921875 -36.453125 C 8.640625 -36.453125 9.1875 -36.210938 9.5625 -35.734375 C 9.945312 -35.265625 10.222656 -34.691406 10.390625 -34.015625 C 10.554688 -33.335938 10.65625 -32.625 10.6875 -31.875 C 10.71875 -31.132812 10.734375 -30.503906 10.734375 -29.984375 Z M 10.734375 -29.984375 "/></g></g></g><g fill="#a284ad" fill-opacity="1"><g transform="translate(341.061529, 89.86615)"><g><path d="M 15.984375 -27.203125 C 15.984375 -26.242188 15.660156 -25.535156 15.015625 -25.078125 C 14.367188 -24.617188 13.648438 -24.179688 12.859375 -23.765625 C 12.066406 -23.359375 11.347656 -22.875 10.703125 -22.3125 C 10.066406 -21.75 9.75 -20.90625 9.75 -19.78125 C 9.75 -19.1875 9.890625 -18.675781 10.171875 -18.25 C 10.453125 -17.820312 10.796875 -17.4375 11.203125 -17.09375 C 11.617188 -16.75 12.070312 -16.394531 12.5625 -16.03125 C 13.0625 -15.664062 13.515625 -15.25 13.921875 -14.78125 C 14.335938 -14.320312 14.6875 -13.765625 14.96875 -13.109375 C 15.25 -12.453125 15.390625 -11.644531 15.390625 -10.6875 C 15.390625 -9.300781 15.03125 -7.9375 14.3125 -6.59375 C 13.601562 -5.257812 12.695312 -4.070312 11.59375 -3.03125 C 10.488281 -2 9.242188 -1.171875 7.859375 -0.546875 C 6.472656 0.078125 5.109375 0.390625 3.765625 0.390625 C 3.203125 0.390625 2.640625 0.347656 2.078125 0.265625 C 1.515625 0.179688 1.007812 0.0234375 0.5625 -0.203125 C 0.125 -0.429688 -0.238281 -0.75 -0.53125 -1.15625 C -0.832031 -1.570312 -0.984375 -2.109375 -0.984375 -2.765625 C -0.984375 -3.691406 -0.800781 -4.410156 -0.4375 -4.921875 C -0.0820312 -5.429688 0.375 -5.832031 0.9375 -6.125 C 1.5 -6.425781 2.097656 -6.660156 2.734375 -6.828125 C 3.378906 -6.992188 3.984375 -7.195312 4.546875 -7.4375 C 5.109375 -7.6875 5.570312 -8.007812 5.9375 -8.40625 C 6.300781 -8.800781 6.484375 -9.363281 6.484375 -10.09375 C 6.484375 -10.78125 6.207031 -11.492188 5.65625 -12.234375 C 5.113281 -12.984375 4.515625 -13.773438 3.859375 -14.609375 C 3.203125 -15.453125 2.597656 -16.351562 2.046875 -17.3125 C 1.503906 -18.269531 1.234375 -19.328125 1.234375 -20.484375 C 1.234375 -21.898438 1.519531 -23.207031 2.09375 -24.40625 C 2.675781 -25.613281 3.453125 -26.660156 4.421875 -27.546875 C 5.398438 -28.441406 6.515625 -29.144531 7.765625 -29.65625 C 9.015625 -30.164062 10.332031 -30.421875 11.71875 -30.421875 C 12.25 -30.421875 12.769531 -30.367188 13.28125 -30.265625 C 13.789062 -30.171875 14.242188 -30 14.640625 -29.75 C 15.035156 -29.507812 15.359375 -29.179688 15.609375 -28.765625 C 15.859375 -28.347656 15.984375 -27.828125 15.984375 -27.203125 Z M 15.984375 -27.203125 "/></g></g></g></svg>